<?xml version="1.0" encoding="utf-8" ?>
<svg xmlns="http://www.w3.org/2000/svg" xmlns:xlink="http://www.w3.org/1999/xlink" width="1024" height="1024">
	<path fill="#43B7FE" d="M568.161 337.401C581.155 314.888 603.394 297.215 628.508 290.526C649.083 285.047 670.527 286.686 691.582 286.772C707.393 286.836 723.255 286.601 739.058 287.015C739.127 306.281 740.345 324.511 725.637 339.365C695.1 370.206 653.703 343.106 620.347 368.944C599.456 385.125 573.9 433.788 559.51 458.193C557.555 461.51 550.127 474.695 547.427 476.574C541.341 487.731 529.08 497.659 517.518 502.622Q515.729 503.409 513.888 504.065Q512.047 504.722 510.163 505.245Q508.28 505.769 506.364 506.156Q504.448 506.544 502.51 506.793Q500.571 507.043 498.619 507.153Q496.668 507.263 494.713 507.234Q492.759 507.204 490.812 507.035Q488.864 506.866 486.934 506.558C456.396 501.393 443.125 472.278 430.093 447.596C422.77 433.728 415.505 419.936 407.621 406.376C402.114 396.905 395.185 384.272 384.315 380.242C379.816 378.574 374.633 378.393 370.234 380.484C365.67 382.653 361.923 387.256 360.397 392.031C359.355 395.292 359.146 398.972 359.039 402.377C358.68 413.778 359.021 425.271 359.034 436.681L359.034 499.583L358.976 538.155C358.957 546.377 358.547 554.913 359.418 563.089C360.375 572.076 363.166 580.607 367.168 588.685C376.898 608.32 393.555 618.874 413.728 625.57C404.36 628.341 395.023 630.524 385.219 630.96C366.072 631.813 348.787 627.087 334.533 613.946C312.298 593.449 305.633 560.854 304.434 531.872C303.871 518.255 304.142 504.565 304.138 490.935L304.115 423.792L304.061 380.565C304.047 368.13 303.524 355.471 305.772 343.184C308.278 329.486 314.12 315.679 323.682 305.425C334.85 293.45 349.555 287.225 365.818 286.758C388.785 286.099 408.404 296.651 421.706 315.27C428.078 324.188 432.894 334.294 438.183 343.867Q450.032 365.339 462.38 386.528C467.783 395.742 473.347 405.634 481.198 412.994C486.837 418.28 493.352 421.643 501.308 421.213C520.508 420.173 535.657 390.543 544.248 376.041Q552.221 362.409 560.554 348.994C562.885 345.268 565.223 340.622 568.161 337.401Z"/>
	<defs>
		<linearGradient id="gradient_0" gradientUnits="userSpaceOnUse" x1="738.30005" y1="321.06894" x2="633.42188" y2="322.43311">
			<stop offset="0" stop-color="#E75AFE"/>
			<stop offset="1" stop-color="#918AFF"/>
		</linearGradient>
	</defs>
	<path fill="url(#gradient_0)" d="M568.161 337.401C581.155 314.888 603.394 297.215 628.508 290.526C649.083 285.047 670.527 286.686 691.582 286.772C707.393 286.836 723.255 286.601 739.058 287.015C739.127 306.281 740.345 324.511 725.637 339.365C695.1 370.206 653.703 343.106 620.347 368.944C599.456 385.125 573.9 433.788 559.51 458.193C557.555 461.51 550.127 474.695 547.427 476.574C547.361 476.08 547.453 475.512 547.484 475.012C560.261 456.462 571.051 436.447 582.62 417.123C591.322 402.59 599.891 388.108 611.508 375.664C613.077 373.983 614.541 372.048 616.293 370.563C623.648 364.331 632.165 361.113 640.827 357.252C642.744 352.998 636.674 333.199 635.672 327.565C634.706 322.133 634.069 316.743 633.871 311.226C633.766 308.294 635.3 292.113 635.215 291.862C634.998 291.219 634.371 290.899 633.737 290.747C631.242 290.149 625.417 292.357 622.809 293.139C605.849 298.226 588.806 311.21 578.083 325.139C575.942 327.919 571.473 335.494 568.812 337.059C568.6 337.183 568.378 337.287 568.161 337.401Z"/>
	<path fill="#D062FE" fill-opacity="0.98823529" d="M625.341 426.212C639.237 420.499 663.32 422.59 678.57 422.599C688.006 422.606 697.553 422.278 706.975 422.738C707.78 438.479 707.501 452.303 696.412 464.654Q695.75 465.38 695.06 466.079Q694.369 466.777 693.65 467.447Q692.932 468.117 692.187 468.758Q691.442 469.398 690.671 470.008Q689.901 470.617 689.107 471.195Q688.312 471.773 687.495 472.318Q686.678 472.863 685.839 473.375Q685 473.886 684.141 474.364Q683.283 474.841 682.405 475.283Q681.528 475.725 680.633 476.13Q679.738 476.536 678.828 476.906Q677.918 477.275 676.993 477.607Q676.069 477.939 675.131 478.233Q674.194 478.528 673.246 478.784Q672.297 479.04 671.339 479.257Q670.381 479.475 669.415 479.653C656.929 482.048 643.03 479.61 634.922 492.054C628.439 502.002 631.257 525.73 630.975 537.548C629.848 584.702 610.625 630.154 565.709 651.021C565.139 650.657 564.628 650.277 564.093 649.857C563.093 649.073 561.781 649.054 560.525 648.917C559.046 648.756 557.708 648.683 556.484 649.672C557.235 650.061 557.835 650.376 558.68 650.523C558.869 650.555 559.059 650.57 559.249 650.593C552.926 654.659 543.321 654.735 536.052 654.751C532.235 652.258 527.216 650.167 523.912 647.134C521.934 645.318 520.877 643.017 520.929 640.315C521.134 629.643 529.512 632.309 534.391 627.714L534.099 626.999L532.436 626.351C535.998 624.03 539.303 621.005 542.311 618.016C559.953 600.485 570.671 575.317 573.126 550.637C573.84 543.456 573.585 536.014 573.629 528.795C576.885 515.982 573.576 502.675 575.083 489.762C575.236 488.446 575.494 486.957 576.142 485.78C577.298 483.683 579.205 482.035 580.412 479.956C582.772 475.887 588.533 463.467 590.119 459.162C591.453 455.541 590.715 451.091 592.403 447.628C596.847 438.508 615.808 430.456 625.012 427.093L625.341 426.212Z"/>
	<path fill="#FDFDFD" d="M427.122 718.026C431.849 717.91 437.342 717.248 441.961 718.107C445.639 718.792 447.21 720.219 449.304 723.223C450.502 730.374 449.941 738.205 449.939 745.465C449.935 761.455 449.412 777.593 450.086 793.563C457.336 776.312 463.411 758.344 470.116 740.852C472.31 735.129 475.865 721.111 481.844 718.721C484.782 717.547 503.919 717.183 506.689 718.775C508.328 719.716 509.118 721.39 509.946 723.019C513.109 729.241 515.258 736.484 517.753 743.025C523.688 758.582 529.348 774.188 535.047 789.829C534.542 767.837 534.465 745.482 535.091 723.493C535.987 722.387 536.882 721.206 537.886 720.197C538.737 719.342 539.559 718.839 540.725 718.499C545.987 716.964 585.388 717.907 593.623 718.079C594.934 718.871 596.408 719.811 597.458 720.93C599.024 722.598 599.252 724.174 599.097 726.374Q599.235 730.181 599.332 733.99C599.389 737.109 599.11 740.881 596.695 743.173C593.228 746.465 575.81 745.052 570.388 744.935C569.283 744.911 567.879 744.601 566.821 744.789C565.669 744.994 565.143 745.457 564.698 746.522C564.246 747.599 564.292 748.666 564.666 749.725C573.027 749.69 581.403 749.923 589.764 750.047C589.868 750.114 589.97 750.182 590.075 750.247C590.751 750.674 591.431 751.09 592.083 751.555C594.229 753.085 594.738 755.472 595.079 757.957C595.692 762.421 595.933 771.306 593.101 774.937C587.314 778.533 571.665 777.017 564.501 776.985C564.423 783.582 565.906 796.945 563.609 802.58C562.722 804.756 561.134 806.309 558.957 807.184C555.357 808.631 545.745 808.982 542.25 807.435Q539.992 806.445 537.765 805.389C536.461 806.086 535.111 806.893 533.742 807.45C530.495 808.772 517.109 808.692 513.837 807.333C507.924 804.877 505.935 794.432 503.642 788.986Q493.517 789.088 483.391 789.047C481.322 793.56 480.376 798.717 477.882 803.028C476.46 805.487 474.506 807.223 471.704 807.896C467.33 808.946 455.677 808.607 451.915 806.219Q450.379 805.26 448.875 804.251L445.973 806.214C443.209 808.092 440.755 808.02 437.524 808.077C432.872 808.158 425.634 809.053 422.153 805.379C420.809 803.959 420.214 802.035 419.98 800.133C419.194 793.763 419.974 786.387 419.942 779.91L420.031 723.971C422.013 720.975 423.673 719.184 427.122 718.026Z"/>
	<path fill="#282E39" d="M487.493 725.25L503.128 725.152C505.967 735.735 511.621 748.277 515.561 758.765C520.768 772.624 525.347 787.38 531.68 800.739L516.212 800.564Q512.701 791.356 509.581 782.008L500.125 782.021L477.839 781.964C475.7 788.241 473.214 794.391 471.097 800.681C465.953 800.637 460.85 800.664 455.709 800.905C458.367 792.673 482.081 728.402 483.957 726.073C484.769 725.065 486.303 725.324 487.493 725.25Z"/>
	<path fill="#FDFDFD" d="M493.346 738.792C495.809 740.771 503.915 766.108 505.459 770.835C501.95 770.581 498.371 770.657 494.851 770.607L481.697 770.785C484.987 759.997 489.438 749.383 493.346 738.792Z"/>
	<path fill="#282E39" d="M542.409 725.276L592.018 725.166L592.068 737.854L557.104 737.764C557.059 741.82 555.857 753.509 557.658 756.75L559.338 757.083C567.972 756.963 579.123 755.93 587.471 757.255C588.197 758.135 587.953 757.69 588.293 758.537C587.957 762.232 588.023 765.91 588.06 769.616L575.373 769.436C569.45 769.671 563.352 769.689 557.441 769.267C556.009 773 557.015 795.22 557.061 800.802C552.137 800.6 547.173 800.692 542.244 800.66C542.813 791.651 542.468 782.449 542.468 773.417L542.409 725.276Z"/>
	<path fill="#141619" d="M559.338 757.083C567.972 756.963 579.123 755.93 587.471 757.255C588.197 758.135 587.953 757.69 588.293 758.537C587.925 758.604 587.557 758.682 587.185 758.724C583.79 759.104 561.169 759.612 558.827 757.722L559.338 757.083Z"/>
	<path fill="#282E39" d="M427.508 725.158L442.036 725.185L442.056 795.386C442.091 797.04 442.346 798.882 441.723 800.418C437.558 801.047 431.645 801.005 427.529 800.118C427.26 775.143 427.558 750.138 427.508 725.158Z"/>
	<path fill="#FDFDFD" d="M695.103 717.093C701.157 716.423 708.126 716.486 714.109 717.609C725.736 719.793 736.304 726.14 742.915 736.049C750.259 747.056 752.29 761.474 749.668 774.335Q749.468 775.366 749.217 776.386Q748.966 777.406 748.665 778.412Q748.364 779.419 748.013 780.409Q747.663 781.399 747.264 782.371Q746.865 783.342 746.418 784.293Q745.972 785.244 745.479 786.172Q744.986 787.099 744.448 788.001Q743.91 788.903 743.328 789.778Q742.745 790.652 742.121 791.496Q741.496 792.341 740.831 793.154Q740.165 793.966 739.46 794.745Q738.755 795.524 738.013 796.267Q737.27 797.01 736.492 797.715Q735.714 798.42 734.902 799.086Q734.089 799.752 733.245 800.377Q732.401 801.002 731.527 801.585C720.06 809.167 705.25 811.038 691.921 808.172C679.553 805.513 670.305 798.758 663.46 788.28C664.028 793.284 663.933 797.806 663.278 802.804C662.547 803.847 661.81 804.966 660.884 805.847C660.102 806.592 659.166 807.187 658.102 807.422C652.143 808.741 645.15 808.065 639.045 808.055L609.375 807.994C606.967 807.471 604.467 807.075 602.756 805.126C601.587 803.795 601.115 802.142 600.932 800.413C599.934 790.986 600.667 780.82 600.662 771.301C600.654 755.323 600.172 739.129 601.07 723.183C601.725 722.097 602.404 721.038 603.292 720.123C605.853 717.488 609.94 717.956 613.31 717.908C617.322 717.85 625.095 717.055 627.834 720.476C629.216 722.202 629.723 725.078 629.945 727.208C630.57 733.188 630.109 739.61 630.097 745.63L630.007 781.565C640.028 781.615 650.109 781.448 660.116 781.992C659.411 780.053 658.868 778.019 658.387 776.012C655.229 762.819 656.525 748.947 663.804 737.326C671.299 725.361 681.796 720.207 695.103 717.093ZM665.401 773.541Q665.635 774.401 665.907 775.249Q666.18 776.098 666.49 776.934Q666.8 777.769 667.147 778.59Q667.494 779.411 667.878 780.215Q668.262 781.019 668.681 781.805Q669.101 782.592 669.555 783.358Q670.009 784.125 670.498 784.871Q670.986 785.616 671.507 786.339Q672.028 787.062 672.581 787.761Q673.135 788.459 673.719 789.133Q674.302 789.806 674.916 790.452Q675.53 791.099 676.172 791.717Q676.813 792.335 677.483 792.924Q678.152 793.512 678.846 794.071Q679.541 794.629 680.26 795.155Q680.979 795.682 681.721 796.175Q682.463 796.669 683.227 797.128Q683.99 797.588 684.773 798.013Q685.557 798.438 686.358 798.828Q687.16 799.218 687.978 799.571Q688.796 799.924 689.629 800.24Q690.463 800.556 691.309 800.834Q692.156 801.113 693.014 801.353Q693.872 801.593 694.74 801.794Q695.609 801.996 696.485 802.158Q697.361 802.32 698.244 802.443Q699.127 802.565 700.014 802.648Q700.901 802.731 701.791 802.775Q702.682 802.818 703.573 802.821Q704.464 802.824 705.354 802.787Q706.245 802.75 707.133 802.673Q708.021 802.597 708.904 802.48Q709.788 802.364 710.665 802.207Q711.542 802.051 712.412 801.856Q713.281 801.661 714.141 801.427Q715.001 801.192 715.85 800.92Q716.698 800.647 717.534 800.337Q718.369 800.027 719.19 799.68Q720.01 799.332 720.815 798.948Q721.619 798.564 722.405 798.145Q723.191 797.725 723.958 797.271Q724.725 796.816 725.47 796.328Q726.215 795.839 726.938 795.318Q727.661 794.797 728.36 794.243Q729.058 793.69 729.732 793.106Q730.405 792.522 731.051 791.908Q731.697 791.295 732.315 790.653Q732.933 790.01 733.522 789.341Q734.11 788.672 734.668 787.977Q735.226 787.282 735.753 786.563Q736.279 785.844 736.772 785.102Q737.266 784.36 737.725 783.596Q738.185 782.833 738.61 782.049Q739.035 781.266 739.424 780.464Q739.814 779.663 740.167 778.844Q740.52 778.026 740.836 777.193Q741.152 776.359 741.43 775.513Q741.708 774.666 741.948 773.808Q742.188 772.95 742.389 772.081Q742.59 771.213 742.752 770.337Q742.914 769.461 743.037 768.578Q743.16 767.695 743.242 766.808Q743.325 765.921 743.368 765.03Q743.411 764.14 743.414 763.249Q743.417 762.358 743.38 761.467Q743.343 760.577 743.266 759.689Q743.189 758.801 743.072 757.918Q742.955 757.034 742.799 756.157Q742.643 755.28 742.447 754.41Q742.252 753.541 742.018 752.681Q741.783 751.821 741.511 750.972Q741.238 750.124 740.928 749.289Q740.617 748.453 740.27 747.633Q739.922 746.812 739.538 746.008Q739.154 745.204 738.734 744.418Q738.314 743.631 737.859 742.865Q737.405 742.098 736.916 741.353Q736.428 740.608 735.906 739.885Q735.385 739.162 734.831 738.464Q734.278 737.765 733.694 737.092Q733.11 736.419 732.496 735.773Q731.882 735.127 731.24 734.509Q730.598 733.891 729.928 733.303Q729.259 732.714 728.564 732.156Q727.869 731.599 727.15 731.073Q726.43 730.546 725.688 730.053Q724.946 729.56 724.182 729.1Q723.419 728.641 722.635 728.216Q721.852 727.791 721.05 727.402Q720.249 727.013 719.43 726.66Q718.612 726.307 717.778 725.991Q716.945 725.676 716.098 725.398Q715.252 725.12 714.393 724.88Q713.535 724.64 712.667 724.439Q711.799 724.238 710.922 724.076Q710.046 723.914 709.163 723.792Q708.28 723.67 707.393 723.587Q706.506 723.504 705.615 723.462Q704.725 723.419 703.834 723.416Q702.943 723.413 702.052 723.45Q701.162 723.488 700.274 723.565Q699.386 723.642 698.503 723.759Q697.619 723.876 696.742 724.032Q695.865 724.189 694.995 724.384Q694.126 724.58 693.266 724.814Q692.406 725.049 691.558 725.322Q690.709 725.594 689.874 725.905Q689.039 726.216 688.218 726.563Q687.398 726.911 686.593 727.295Q685.789 727.68 685.003 728.1Q684.217 728.52 683.451 728.974Q682.684 729.429 681.939 729.918Q681.194 730.406 680.471 730.928Q679.749 731.45 679.05 732.003Q678.352 732.557 677.679 733.141Q677.006 733.725 676.36 734.339Q675.714 734.953 675.096 735.596Q674.479 736.238 673.89 736.907Q673.302 737.577 672.744 738.272Q672.186 738.967 671.66 739.686Q671.134 740.406 670.641 741.148Q670.148 741.89 669.689 742.654Q669.229 743.418 668.805 744.201Q668.38 744.985 667.991 745.786Q667.602 746.588 667.249 747.407Q666.897 748.225 666.581 749.059Q666.265 749.892 665.988 750.739Q665.71 751.586 665.47 752.444Q665.111 753.73 664.839 755.037Q664.568 756.344 664.384 757.667Q664.201 758.989 664.107 760.321Q664.013 761.653 664.009 762.988Q664.004 764.323 664.09 765.655Q664.175 766.988 664.349 768.311Q664.524 769.635 664.787 770.944Q665.051 772.253 665.401 773.541Z"/>
	<path fill="#282E39" d="M665.47 752.444Q665.71 751.586 665.988 750.739Q666.265 749.892 666.581 749.059Q666.897 748.225 667.249 747.407Q667.602 746.588 667.991 745.786Q668.38 744.985 668.805 744.201Q669.229 743.418 669.689 742.654Q670.148 741.89 670.641 741.148Q671.134 740.406 671.66 739.686Q672.186 738.967 672.744 738.272Q673.302 737.577 673.89 736.907Q674.479 736.238 675.096 735.596Q675.714 734.953 676.36 734.339Q677.006 733.725 677.679 733.141Q678.352 732.557 679.05 732.003Q679.749 731.45 680.471 730.928Q681.194 730.406 681.939 729.918Q682.684 729.429 683.451 728.974Q684.217 728.52 685.003 728.1Q685.789 727.68 686.593 727.295Q687.398 726.911 688.218 726.563Q689.039 726.216 689.874 725.905Q690.709 725.594 691.558 725.322Q692.406 725.049 693.266 724.814Q694.126 724.58 694.995 724.384Q695.865 724.189 696.742 724.032Q697.619 723.876 698.503 723.759Q699.386 723.642 700.274 723.565Q701.162 723.488 702.052 723.45Q702.943 723.413 703.834 723.416Q704.725 723.419 705.615 723.462Q706.506 723.504 707.393 723.587Q708.28 723.67 709.163 723.792Q710.046 723.914 710.922 724.076Q711.798 724.238 712.667 724.439Q713.535 724.64 714.393 724.88Q715.252 725.12 716.098 725.398Q716.945 725.676 717.778 725.991Q718.612 726.307 719.43 726.66Q720.249 727.013 721.05 727.402Q721.852 727.791 722.635 728.216Q723.419 728.641 724.182 729.1Q724.946 729.56 725.688 730.053Q726.43 730.546 727.15 731.073Q727.869 731.599 728.564 732.156Q729.259 732.714 729.928 733.303Q730.598 733.891 731.24 734.509Q731.882 735.127 732.496 735.773Q733.11 736.419 733.694 737.092Q734.278 737.765 734.831 738.464Q735.385 739.162 735.906 739.885Q736.428 740.608 736.916 741.353Q737.405 742.098 737.859 742.865Q738.314 743.631 738.734 744.418Q739.154 745.204 739.538 746.008Q739.922 746.812 740.269 747.633Q740.617 748.453 740.927 749.289Q741.238 750.124 741.511 750.972Q741.783 751.821 742.018 752.681Q742.252 753.541 742.447 754.41Q742.643 755.28 742.799 756.157Q742.955 757.034 743.072 757.918Q743.189 758.801 743.266 759.689Q743.343 760.577 743.38 761.467Q743.417 762.358 743.414 763.249Q743.411 764.14 743.368 765.03Q743.325 765.921 743.242 766.808Q743.16 767.695 743.037 768.578Q742.914 769.461 742.752 770.337Q742.59 771.213 742.389 772.081Q742.188 772.95 741.948 773.808Q741.708 774.666 741.43 775.513Q741.152 776.359 740.836 777.193Q740.52 778.026 740.167 778.844Q739.814 779.663 739.424 780.464Q739.035 781.266 738.61 782.049Q738.185 782.833 737.725 783.596Q737.266 784.36 736.772 785.102Q736.279 785.844 735.753 786.563Q735.226 787.282 734.668 787.977Q734.11 788.672 733.522 789.341Q732.933 790.01 732.315 790.653Q731.697 791.295 731.051 791.908Q730.405 792.522 729.732 793.106Q729.058 793.69 728.36 794.243Q727.661 794.797 726.938 795.318Q726.215 795.839 725.47 796.328Q724.725 796.816 723.958 797.271Q723.191 797.725 722.405 798.145Q721.619 798.564 720.815 798.948Q720.01 799.332 719.19 799.68Q718.369 800.027 717.534 800.337Q716.698 800.647 715.85 800.92Q715.001 801.192 714.141 801.427Q713.281 801.661 712.412 801.856Q711.542 802.051 710.665 802.207Q709.788 802.364 708.904 802.48Q708.021 802.597 707.133 802.673Q706.245 802.75 705.354 802.787Q704.464 802.824 703.573 802.821Q702.682 802.818 701.791 802.775Q700.901 802.732 700.014 802.649Q699.127 802.566 698.244 802.443Q697.361 802.32 696.485 802.158Q695.609 801.996 694.74 801.794Q693.872 801.593 693.014 801.353Q692.156 801.113 691.309 800.834Q690.463 800.556 689.629 800.24Q688.796 799.924 687.978 799.571Q687.16 799.218 686.358 798.828Q685.557 798.438 684.773 798.013Q683.99 797.588 683.227 797.129Q682.463 796.669 681.721 796.175Q680.979 795.682 680.26 795.155Q679.541 794.629 678.846 794.071Q678.151 793.512 677.482 792.924Q676.813 792.335 676.172 791.717Q675.53 791.099 674.916 790.452Q674.302 789.806 673.719 789.133Q673.135 788.459 672.581 787.761Q672.028 787.062 671.507 786.339Q670.986 785.616 670.498 784.871Q670.009 784.125 669.555 783.358Q669.101 782.592 668.681 781.805Q668.262 781.019 667.878 780.215Q667.494 779.411 667.147 778.59Q666.8 777.769 666.49 776.934Q666.18 776.098 665.907 775.25Q665.635 774.401 665.401 773.541Q665.051 772.253 664.787 770.944Q664.524 769.635 664.35 768.311Q664.175 766.988 664.09 765.655Q664.004 764.323 664.009 762.988Q664.013 761.653 664.107 760.321Q664.201 758.989 664.384 757.667Q664.568 756.344 664.839 755.037Q665.111 753.73 665.47 752.444ZM708.075 782.637C713.317 780.6 717.039 777.98 719.498 772.673C722.026 767.216 722.202 760.343 719.973 754.757C718.188 750.282 714.8 746.687 710.27 744.96C706.731 743.611 703.263 743.904 699.558 744.147C694.431 745.978 690.592 748.792 688.238 753.839C685.683 759.314 685.438 766.35 687.651 771.976C689.39 776.399 692.717 779.981 697.178 781.725C700.767 783.129 704.312 783.135 708.075 782.637Z"/>
	<path fill="#FDFDFD" d="M699.076 736.568C705.306 736.184 711.158 736.474 716.723 739.684C722.326 742.916 726.041 748.264 727.724 754.453C729.826 762.179 729.33 771.389 725.177 778.34C721.609 784.311 716.541 787.655 709.938 789.372C703.348 790.451 696.917 790.106 690.949 786.731C685.186 783.472 681.489 778.07 679.795 771.738C677.781 764.208 678.554 754.802 682.543 748.079C686.33 741.699 692.092 738.378 699.076 736.568ZM708.075 782.637C713.317 780.6 717.039 777.98 719.498 772.673C722.026 767.216 722.202 760.343 719.973 754.757C718.188 750.282 714.8 746.687 710.27 744.96C706.731 743.611 703.263 743.904 699.558 744.147C694.431 745.978 690.592 748.792 688.238 753.839C685.683 759.314 685.438 766.35 687.651 771.976C689.39 776.399 692.717 779.981 697.178 781.725C700.767 783.129 704.312 783.135 708.075 782.637Z"/>
	<path fill="#282E39" d="M608.034 725.199C612.864 725.294 617.704 725.215 622.535 725.2L622.442 788.683L656.698 788.579C656.448 792.604 656.558 796.693 656.527 800.728L607.939 800.72C608.144 775.55 607.673 750.367 608.034 725.199Z"/>
	<path fill="#FDFDFD" d="M781.92 751.307C783.9 743.026 786.805 728.218 790.938 721.219C791.87 719.642 792.758 718.76 794.601 718.308C798.149 717.437 809.524 717.478 813.214 718.181C814.697 718.463 816.012 719.267 817.3 720.019C821.606 727.537 824.378 743.031 826.634 752.005C827.795 745.328 832.188 724.258 836.412 719.966C840.039 716.28 854.06 717.966 859.077 718.087C860.706 719.354 862.518 720.656 863.395 722.596C866.013 728.39 854.461 759.991 851.892 767.973C849.139 778.728 845.643 789.842 841.91 800.296C841.07 802.649 839.927 806.051 837.452 807.102C833.722 808.687 818.727 808.631 814.979 806.776C810.227 804.425 805.922 781.156 803.806 775.338L803.586 774.75C803.518 775.034 803.446 775.316 803.371 775.598C801.881 781.205 796.884 804.734 791.873 807.278C787.559 809.468 774.323 808.081 769.611 806.537C768.631 805.049 767.921 803.629 767.289 801.962C764.533 794.696 742.792 726.509 743.617 723.109C744.219 720.631 746.405 719.283 748.441 718.053C754.566 717.926 766.133 716.298 771.461 719.518C773.182 720.559 774.344 722.075 775.176 723.884C777.192 728.266 780.725 745.643 781.92 751.307Z"/>
	<path fill="#282E39" d="M841.098 725.112Q849.162 725.342 857.225 725.071Q849.896 749.416 842.213 773.652C839.891 781.133 835.77 791.213 834.959 798.705C834.195 799.874 834.199 800.227 832.767 800.502C829.45 801.138 821.349 801.464 818.465 800.018C814.599 788.151 811.607 775.822 808.26 763.789C806.79 758.503 805.52 753.096 803.523 747.979C798.907 765.648 793.273 783.022 788.646 800.677Q781.501 800.69 774.359 800.518C772.622 792.86 769.789 785.204 767.446 777.684L750.782 725.279L767.704 725.243C772.573 743.125 776.929 761.184 781.521 779.142C786.899 761.371 792.145 743.153 796.485 725.105C801.523 725.357 806.662 725.132 811.71 725.115L826.539 779.356L841.098 725.112Z"/>
	<path fill="#FDFDFD" d="M208.872 750.24C212.218 743.635 221.033 724.187 225.317 719.907C228.232 716.994 242.268 717.652 246.767 717.935C249.454 718.104 252.109 718.999 253.782 721.225C255.164 723.064 255.267 726.867 255.416 729.191C256.181 741.138 255.549 753.448 255.543 765.451C255.538 774.983 256.638 792.958 254.792 801.802C254.37 803.822 253.742 805.023 251.956 806.142C246.783 809.38 237.551 808.385 231.8 807.286C230.747 806.801 229.547 806.279 228.714 805.457C224.89 801.683 226.154 781.551 226.386 775.675C223.421 782.728 220.3 791.131 213.63 795.432C210.101 795.47 206.766 795.381 203.274 794.855C198.369 789.896 195.355 782.612 192.001 776.523C192.328 783.469 192.952 790.766 192.426 797.703C192.188 800.838 191.361 804.111 188.762 806.127C184.997 809.046 175.878 808.442 171.293 807.767C168.727 807.389 165.927 806.541 164.414 804.269C163.205 802.455 163.196 798.693 163.081 796.55C162.27 781.495 162.959 766.055 162.962 750.966C162.963 745.334 162.042 729.324 163.313 724.559C164.191 721.27 166.63 719.695 169.39 718.036C176.753 717.885 186.39 716.588 193.182 719.649C199.449 728.829 203.965 740.243 208.872 750.24Z"/>
	<path fill="#282E39" d="M230.079 725.408C235.982 724.941 242.087 725.194 248.015 725.177L248.047 800.599L233.623 800.559C234.295 788.388 233.859 775.978 233.844 763.781Q233.819 755.287 233.609 746.796C230.297 753.086 214.41 785.197 211.659 787.393C210.572 788.262 207.874 787.829 206.595 787.563C203.417 783.314 201.197 777.94 198.66 773.264C194.069 764.802 189.172 756.416 185.033 747.724L185.045 800.6L170.55 800.553Q170.731 775.53 170.628 750.507C170.623 742.138 170.25 733.587 170.774 725.238Q179.431 725.326 188.089 725.318C195.676 738.51 202.055 752.82 208.976 766.404C216.175 752.837 222.975 739.031 230.079 725.408Z"/>
	<path fill="#FDFDFD" d="M339.345 718.031C350.765 717.891 362.289 717.641 373.702 717.963C386.386 718.322 397.708 722.016 406.527 731.444C415.159 740.672 418.398 753.023 417.947 765.447C417.459 778.874 412.78 789.054 403.035 798.19C389.849 807.991 377.84 807.855 362.05 807.988C355.809 808.04 349.325 808.48 343.106 808.005C340.828 807.831 336.206 807.13 334.886 804.888C333.789 803.023 333.562 798.511 333.481 796.292C332.948 781.567 333.465 766.631 333.437 751.881C333.425 745.716 332.517 728.947 333.752 724.025C334.502 721.037 336.801 719.455 339.345 718.031ZM363.159 781.699C370.849 781.832 377.377 782.346 383.735 777.129C387.688 772.494 389.298 767.319 388.806 761.196C388.418 756.377 386.559 751.574 382.714 748.48C377.129 743.986 369.932 745.375 363.377 744.664C363.383 756.855 364.1 769.579 363.159 781.699Z"/>
	<path fill="#282E39" d="M348.266 725.23C357.601 725.178 367.18 724.72 376.481 725.512C386.185 726.339 395.234 729.618 401.584 737.292C408.67 745.855 411.582 757.267 410.431 768.237C409.359 778.451 404.493 787.088 396.609 793.561C385.86 801.019 374.43 800.8 361.831 800.736L340.955 800.592L340.985 725.566L348.266 725.23ZM363.159 781.699C370.849 781.832 377.377 782.346 383.735 777.129C387.688 772.494 389.298 767.319 388.806 761.196C388.418 756.377 386.559 751.574 382.714 748.48C377.129 743.986 369.932 745.375 363.377 744.664C363.383 756.855 364.1 769.579 363.159 781.699Z"/>
	<path fill="#FDFDFD" d="M356.053 737.112C366.665 736.972 380.186 735.864 388.686 743.505C393.58 747.906 395.741 754.247 396.064 760.681C396.483 769.047 394.785 775.963 389.053 782.33C379.704 790.504 367.544 788.965 356.017 788.867L356.053 737.112ZM363.159 781.699C370.849 781.832 377.377 782.346 383.735 777.129C387.688 772.494 389.298 767.319 388.806 761.196C388.418 756.377 386.559 751.574 382.714 748.48C377.129 743.986 369.932 745.375 363.377 744.664C363.383 756.855 364.1 769.579 363.159 781.699Z"/>
	<path fill="#FDFDFD" d="M270.906 718.087C282.264 717.439 293.949 718.019 305.344 718.03C310.418 718.035 316.018 717.327 321.007 717.83C322.823 718.013 324.655 718.552 326.18 719.575C328.448 721.098 329.643 723.464 330.127 726.098C330.836 729.958 331.023 739.545 328.444 742.577C324.487 747.229 303.185 744.287 296.807 744.874C294.953 745.045 294.392 745.688 293.215 747.069L293.411 748.421C297.685 752.459 317.153 747.404 322.129 750.752C323.621 751.755 324.41 753.647 324.864 755.315C326.025 759.585 326.515 770.11 323.96 773.806C320.428 778.916 300.754 775.922 294.508 776.799C293.802 778.11 294.011 779.865 293.993 781.351C304.306 781.754 315.081 780.565 325.277 782.18C326.286 782.907 327.292 783.614 328.049 784.623C330.712 788.179 330.686 796.175 329.885 800.407C329.404 802.945 328.319 805.396 326.005 806.748C324.849 807.424 323.474 807.783 322.151 807.929C315.968 808.608 275.072 808.406 270.575 807.122C269.168 806.721 267.322 806.057 266.611 804.713C265.42 802.462 264.98 799.408 264.77 796.893C264.053 788.285 263.69 727.283 265.344 722.989C266.268 720.589 268.64 719.019 270.906 718.087Z"/>
	<path fill="#282E39" d="M271.922 725.237L322.741 725.116L322.964 737.919C310.865 737.466 298.588 737.715 286.48 737.917L286.452 756.964L292.623 757.016C296.906 756.99 315.305 756.097 317.924 757.571L318.265 758.481C318.069 762.183 318.051 765.859 318.083 769.566Q302.248 769.447 286.413 769.529L286.459 788.62L310.201 788.522C314.157 788.51 318.955 788.014 322.803 788.818Q322.676 794.708 322.738 800.599C313.885 800.633 277.904 801.802 271.956 800.21L271.922 725.237Z"/>
	<path fill="#141619" d="M292.623 757.016C296.906 756.99 315.305 756.097 317.924 757.571L318.265 758.481C312.556 759.174 295.265 759.665 290.32 758.148L290.256 757.662L292.623 757.016Z"/>
	<path fill="#9C82FE" d="M573.629 528.795C573.466 521.196 573.578 513.566 573.577 505.962C573.572 487.004 574.149 469.711 585.531 453.642C593.813 441.95 610.899 428.608 625.341 426.212L625.012 427.093C615.808 430.456 596.847 438.508 592.403 447.628C590.715 451.091 591.453 455.541 590.119 459.162C588.533 463.467 582.772 475.887 580.412 479.956C579.205 482.035 577.298 483.683 576.142 485.78C575.494 486.957 575.236 488.446 575.083 489.762C573.576 502.675 576.885 515.982 573.629 528.795Z"/>
	<path fill="#D062FE" fill-opacity="0.35686275" d="M511.638 636.408C515.149 635.143 518.573 633.672 522.011 632.224C520.587 633.53 519.193 634.934 517.703 636.159C515.06 638.163 509.338 641.412 508.962 645.084C508.884 645.84 509.207 646.778 509.363 647.515C509.51 648.207 509.536 648.846 509.585 649.548C509.759 652.063 510.73 654.278 512.651 655.951C516.387 659.205 522.966 659.235 527.632 658.783C527.997 658.748 528.359 658.677 528.721 658.616C531.975 657.714 534.931 658.218 538.234 657.88C542.508 657.442 546.756 656.697 551.01 656.101C555.676 655.447 559.733 652.539 564.307 652.108C559.282 655.967 544.932 660.098 538.495 661.389C533.97 662.296 529.34 662.645 524.847 663.705Q519.561 663.546 514.279 663.297C511.129 660.128 508.092 657.722 504.191 655.528C503.597 648.838 502.006 645.896 504.187 639.215C506.733 638.468 509.417 637.902 511.638 636.408Z"/>
	<defs>
		<linearGradient id="gradient_1" gradientUnits="userSpaceOnUse" x1="521.10114" y1="651.62201" x2="526.39752" y2="646.35626">
			<stop offset="0" stop-color="#CA5EF7" stop-opacity="0.627451"/>
			<stop offset="1" stop-color="#CD5BF8" stop-opacity="0.71372551"/>
		</linearGradient>
	</defs>
	<path fill="url(#gradient_1)" d="M522.011 632.224C525.813 630.884 529.139 628.621 532.436 626.351L534.099 626.999L534.391 627.714C529.512 632.309 521.134 629.643 520.929 640.315C520.877 643.017 521.934 645.318 523.912 647.134C527.216 650.167 532.235 652.258 536.052 654.751C543.321 654.735 552.926 654.659 559.249 650.593C559.059 650.57 558.869 650.555 558.68 650.523C557.835 650.376 557.235 650.061 556.484 649.672C557.708 648.683 559.046 648.756 560.525 648.917C561.781 649.054 563.093 649.073 564.093 649.857C564.628 650.277 565.139 650.657 565.709 651.021L564.307 652.108C559.733 652.539 555.676 655.447 551.01 656.101C546.756 656.697 542.508 657.442 538.234 657.88C534.931 658.218 531.975 657.714 528.721 658.616C526.264 651.287 523.229 654.616 519.701 649.423L519.2 649.65L517.063 647.5C517.68 644.834 518.951 641.415 519.039 638.749C519.076 637.649 518.362 636.954 517.703 636.159C519.193 634.934 520.587 633.53 522.011 632.224Z"/>
	<defs>
		<linearGradient id="gradient_2" gradientUnits="userSpaceOnUse" x1="513.31134" y1="652.5741" x2="514.73773" y2="651.38501">
			<stop offset="0" stop-color="#C865F6" stop-opacity="0.45882353"/>
			<stop offset="1" stop-color="#C863F6" stop-opacity="0.49411765"/>
		</linearGradient>
	</defs>
	<path fill="url(#gradient_2)" d="M517.703 636.159C518.362 636.954 519.076 637.649 519.039 638.749C518.951 641.415 517.68 644.834 517.063 647.5L516.009 646.777C515.763 648.119 516.209 649.141 516.983 650.244C517.809 651.421 518.715 652.283 519.848 653.153L520.182 652.242L520.641 653.217L520.614 653.275C520.581 653.098 520.554 652.919 520.514 652.743C520.31 651.825 520.416 652.251 520.021 651.401C519.669 650.645 519.67 650.238 519.701 649.423C523.229 654.616 526.264 651.287 528.721 658.616C528.359 658.677 527.997 658.748 527.632 658.783C522.966 659.235 516.387 659.205 512.651 655.951C510.73 654.278 509.759 652.063 509.585 649.548C509.536 648.846 509.51 648.207 509.363 647.515C509.207 646.778 508.884 645.84 508.962 645.084C509.338 641.412 515.06 638.163 517.703 636.159Z"/>
	<path fill="#D062FE" fill-opacity="0.078431375" d="M524.847 663.705L523.992 664.203C518.191 664.366 509.68 664.828 504.328 662.154C502.345 657.127 496.739 655.357 495.343 649.35C494.835 647.163 495.239 644.919 496.529 643.069C499.834 638.329 506.35 637.233 511.638 636.408C509.417 637.902 506.733 638.468 504.187 639.215C502.006 645.896 503.597 648.838 504.191 655.528C508.092 657.722 511.129 660.128 514.279 663.297Q519.561 663.545 524.847 663.705Z"/>
	<path fill="#D062FE" fill-opacity="0.57647061" d="M519.701 649.423C519.67 650.238 519.669 650.645 520.021 651.401C520.416 652.251 520.31 651.825 520.514 652.743C520.554 652.919 520.581 653.098 520.614 653.275L520.641 653.217L520.182 652.242L519.848 653.153C518.715 652.283 517.809 651.421 516.983 650.244C516.209 649.141 515.763 648.119 516.009 646.777L517.063 647.5L519.2 649.65L519.701 649.423Z"/>
	<path fill="#FDFDFD" fill-opacity="0.28235295" d="M54 0L504.012 0L504 0.525786L53.9996 0.588066L54 0Z"/>
	<path fill="#FDFDFD" fill-opacity="0.3019608" d="M520.184 1023.57C577.026 1022.9 633.926 1023.5 690.776 1023.5C734.705 1023.49 778.798 1022.67 822.712 1023.51L822.582 1024L520.082 1024L520.184 1023.57Z"/>
	<path fill="#FDFDFD" fill-opacity="0.29411766" d="M148.291 1023.49L438.215 1023.48L438.082 1024L148.418 1024L148.291 1023.49Z"/>
	<path fill="#FDFDFD" fill-opacity="0.27058825" d="M750.731 0L1022.23 0C1021.6 0.363539 1021.13 0.526202 1020.4 0.542814C999.402 1.01602 978.257 0.490169 957.25 0.495727L821.208 0.514586C797.669 0.524191 774.079 0.218872 750.546 0.61117L750.731 0Z"/>
	<path fill="#FDFDFD" fill-opacity="0.29019609" d="M520.192 0L750.731 0L750.546 0.61117C723.562 0.0904536 696.492 0.501664 669.5 0.505958L520.028 0.490153L520.192 0Z"/>
	<path fill="#FDFDFD" fill-opacity="0.42352942" d="M0 520.189L0.4653 520.034C1.19205 578.156 0.830914 636.427 0.50741 694.555L0 694.731L0 520.189Z"/>
	<path fill="#FDFDFD" fill-opacity="0.27058825" d="M1.83969 1024C8.21831 1022.33 37.2235 1023.48 46.2078 1023.5L148.291 1023.49L148.418 1024L1.83969 1024Z"/>
	<path fill="#FDFDFD" fill-opacity="0.46666667" d="M1023.44 472.5L1024 472.5L1024 584L1023.49 584L1023.44 472.5Z"/>
	<path fill="#FDFDFD" fill-opacity="0.34117648" d="M0 16.5L0.506607 16.4996L0.584123 127.999L0 128L0 16.5Z"/>
	<path fill="#FDFDFD" fill-opacity="0.39607844" d="M0 144.134L0.561373 143.999L0.574272 247.5L0 247.5L0 144.134Z"/>
	<path fill="#FDFDFD" fill-opacity="0.4627451" d="M0 752.731L0.593518 752.544L0.576795 848.045L0 848.231L0 752.731Z"/>
	<path fill="#FDFDFD" fill-opacity="0.27843139" d="M822.712 1023.51L888.531 1023.49C897.906 1023.5 910.393 1022.53 919.355 1023.65L919.418 1024L822.582 1024L822.712 1023.51Z"/>
	<path fill="#FDFDFD" fill-opacity="0.26666668" d="M919.355 1023.65C930.491 1023.35 1011.59 1022.58 1016.1 1024L919.418 1024L919.355 1023.65Z"/>
	<path fill="#FDFDFD" fill-opacity="0.41176471" d="M0 320.5L0.558364 320.5L0.567902 392.497L0 392.626L0 320.5Z"/>
	<path fill="#FDFDFD" fill-opacity="0.44705883" d="M1023.55 271.696L1024 271.582L1024 335.952L1023.5 335.849C1023 328.069 1023.43 320.004 1023.43 312.198C1023.42 298.702 1023.23 285.188 1023.55 271.696Z"/>
	<path fill="#FDFDFD" fill-opacity="0.43529412" d="M1023.45 400.015L1024 400.015L1024 463.482L1023.44 463.419C1023.18 442.299 1023.43 421.139 1023.45 400.015Z"/>
	<path fill="#FDFDFD" fill-opacity="0.41176471" d="M1023.5 335.849L1024 335.952L1024 400.015L1023.45 400.015L1023.5 335.849Z"/>
	<path fill="#FDFDFD" fill-opacity="0.28235295" d="M438.215 1023.48L503.913 1023.51L503.978 1024L438.082 1024L438.215 1023.48Z"/>
	<path fill="#FDFDFD" fill-opacity="0.50196081" d="M1023.44 767L1024 767L1024 823.918L1023.52 823.796C1023.05 817.567 1023.41 811.039 1023.4 804.78L1023.44 767Z"/>
	<path fill="#FDFDFD" fill-opacity="0.47058824" d="M1023.42 183.994L1024 183.994L1024 240.5L1023.43 240.5L1023.42 183.994Z"/>
	<path fill="#FDFDFD" fill-opacity="0.31764707" d="M1023.49 0L1024 0L1024 56.5817L1023.5 56.6829L1023.42 21.6943C1023.41 14.4938 1023.14 7.18888 1023.49 0Z"/>
	<path fill="#FDFDFD" fill-opacity="0.40000001" d="M0 263.905L0.558363 264.001L0.558364 320.5L0 320.5L0 263.905Z"/>
	<path fill="#FDFDFD" fill-opacity="0.40000001" d="M0 392.626L0.567902 392.497L0.547751 447.002L0 447.103L0 392.626Z"/>
	<path fill="#FDFDFD" fill-opacity="0.40784314" d="M0 888.278L0.563463 888.46L0.566434 939.5L0 939.5L0 888.278Z"/>
	<path fill="#FDFDFD" fill-opacity="0.4509804" d="M1023.49 127.783L1024 127.918L1024 175.987L1023.43 175.987C1023.43 159.93 1023.18 143.835 1023.49 127.783Z"/>
	<path fill="#FDFDFD" fill-opacity="0.45490196" d="M1023.52 823.796L1024 823.918L1024 871.451L1023.47 871.343C1022.85 855.619 1023.32 839.534 1023.52 823.796Z"/>
	<path fill="#FDFDFD" fill-opacity="0.41960785" d="M0 456.269L0.544426 456.456Q0.649659 480.212 0.498049 503.967L0 503.795L0 456.269Z"/>
	<path fill="#FDFDFD" fill-opacity="0.24313726" d="M2.74098 0L54 0L53.9996 0.588066Q37.6436 0.466884 21.2874 0.555909C15.3078 0.557627 8.61856 1.08147 2.74098 0Z"/>
	<path fill="#FDFDFD" fill-opacity="0.45882353" d="M0 694.731L0.50741 694.555C0.535034 708.198 0.71026 721.858 0.583648 735.5L0 735.5L0 694.731Z"/>
	<path fill="#FDFDFD" fill-opacity="0.46666667" d="M1023.48 671.782L1024 671.918L1024 710.918L1023.49 710.769C1022.57 699.136 1023.34 683.82 1023.48 671.782Z"/>
	<path fill="#FDFDFD" fill-opacity="0.44313726" d="M0 848.231L0.576795 848.045L0.563463 888.46L0 888.278L0 848.231Z"/>
	<path fill="#FDFDFD" fill-opacity="0.37254903" d="M1023.44 974L1024 974L1024 1013.74C1022.35 1007.51 1023.42 982.057 1023.44 974Z"/>
	<path fill="#FDFDFD" fill-opacity="0.40784314" d="M1023.5 56.6829L1024 56.5817L1024 91.5L1023.4 91.4999L1023.5 56.6829Z"/>
	<path fill="#FDFDFD" fill-opacity="0.56078434" d="M1023.49 710.769L1024 710.918L1024 744L1023.39 744C1023.39 732.934 1023.2 721.83 1023.49 710.769Z"/>
	<path fill="#FDFDFD" fill-opacity="0.43137255" d="M1023.43 240.5L1024 240.5L1024 271.582L1023.55 271.696Q1023.37 256.099 1023.43 240.5Z"/>
	<path fill="#FDFDFD" fill-opacity="0.42745098" d="M1023.49 943.785L1024 943.918L1024 974L1023.44 974C1023.56 963.929 1023.27 953.858 1023.49 943.785Z"/>
	<path fill="#FDFDFD" fill-opacity="0.44705883" d="M1023.4 91.4999L1024 91.5L1024 119.503L1023.45 119.517L1023.4 91.4999Z"/>
	<path fill="#FDFDFD" fill-opacity="0.43921569" d="M0 991.167L0.56724 991.004C0.571809 999.165 1.58775 1014.89 0 1022.18L0 991.167Z"/>
	<path fill="#FDFDFD" fill-opacity="0.49019608" d="M1023.47 871.343L1024 871.451L1024 897.582L1023.44 897.735C1023.53 888.938 1023.36 880.142 1023.47 871.343Z"/>
	<path fill="#FDFDFD" fill-opacity="0.43921569" d="M1023.43 647L1024 647L1024 671.918L1023.48 671.782C1023.28 663.537 1023.44 655.25 1023.43 647Z"/>
	<path fill="#FDFDFD" fill-opacity="0.53725493" d="M1023.39 744L1024 744L1024 767L1023.44 767L1023.39 744Z"/>
	<path fill="#FDFDFD" fill-opacity="0.43921569" d="M1023.49 584L1024 584L1024 608.08L1023.5 608.209Q1023.35 596.105 1023.49 584Z"/>
	<path fill="#FDFDFD" fill-opacity="0.45490196" d="M1023.53 623.722L1024 623.582L1024 647L1023.43 647C1023.41 639.272 1023.13 631.435 1023.53 623.722Z"/>
	<path fill="#FDFDFD" fill-opacity="0.41176471" d="M0 955.269L0.597331 955.455L0.577013 976.544L0 976.731L0 955.269Z"/>
	<path fill="#FDFDFD" fill-opacity="0.50196081" d="M0 735.5L0.583648 735.5L0.593518 752.544L0 752.731L0 735.5Z"/>
	<path fill="#FDFDFD" fill-opacity="0.41176471" d="M0 247.5L0.574272 247.5L0.558363 264.001L0 263.905L0 247.5Z"/>
	<path fill="#FDFDFD" fill-opacity="0.39607844" d="M0 939.5L0.566434 939.5C0.562656 944.814 0.471893 950.143 0.597331 955.455L0 955.269L0 939.5Z"/>
	<path fill="#FDFDFD" fill-opacity="0.49411765" d="M1023.5 608.209L1024 608.08L1024 623.582L1023.53 623.722Q1023.34 615.966 1023.5 608.209Z"/>
	<path fill="#FDFDFD" fill-opacity="0.40784314" d="M0 128L0.584123 127.999Q0.512841 135.999 0.561373 143.999L0 144.134L0 128Z"/>
	<path fill="#FDFDFD" fill-opacity="0.40784314" d="M1023.5 912.184L1024 912.082L1024 927.53L1023.47 927.618Q1023.36 919.901 1023.5 912.184Z"/>
	<path fill="#FDFDFD" fill-opacity="0.36862746" d="M0 503.795L0.498049 503.967C0.511086 509.317 0.622687 514.687 0.4653 520.034L0 520.189L0 503.795Z"/>
	<path fill="#FDFDFD" fill-opacity="0.32941177" d="M0 1.24699C1.46109 5.65437 0.618365 11.8742 0.506607 16.4996L0 16.5L0 1.24699Z"/>
	<path fill="#FDFDFD" fill-opacity="0.38431373" d="M1023.44 897.735L1024 897.582L1024 912.082L1023.5 912.184Q1023.36 904.96 1023.44 897.735Z"/>
	<path fill="#FDFDFD" fill-opacity="0.27058825" d="M503.913 1023.51C509.332 1023.5 514.766 1023.4 520.184 1023.57L520.082 1024L503.978 1024L503.913 1023.51Z"/>
	<path fill="#FDFDFD" fill-opacity="0.22352941" d="M504.012 0L520.192 0L520.028 0.490153L504 0.525786L504.012 0Z"/>
	<path fill="#FDFDFD" fill-opacity="0.3764706" d="M0 976.731L0.577013 976.544L0.56724 991.004L0 991.167L0 976.731Z"/>
	<path fill="#FDFDFD" fill-opacity="0.45490196" d="M0 447.103L0.547751 447.002L0.544426 456.456L0 456.269L0 447.103Z"/>
	<path fill="#FDFDFD" fill-opacity="0.48235294" d="M1023.44 463.419L1024 463.482L1024 472.5L1023.44 472.5L1023.44 463.419Z"/>
	<path fill="#FDFDFD" fill-opacity="0.4627451" d="M1023.47 927.618L1024 927.53L1024 936.046L1023.48 936.152C1023.42 933.311 1023.47 930.459 1023.47 927.618Z"/>
	<path fill="#FDFDFD" fill-opacity="0.40000001" d="M1023.45 119.517L1024 119.503L1024 127.918L1023.49 127.783L1023.45 119.517Z"/>
	<path fill="#FDFDFD" fill-opacity="0.50588238" d="M1023.43 175.987L1024 175.987L1024 183.994L1023.42 183.994L1023.43 175.987Z"/>
	<path fill="#FDFDFD" fill-opacity="0.40784314" d="M1023.48 936.152L1024 936.046L1024 943.918L1023.49 943.785C1023.41 941.252 1023.48 938.688 1023.48 936.152Z"/>
</svg>
